{
	"asset":{
		"generator":"Khronos glTF Blender I/O v4.2.57",
		"version":"2.0"
	},
	"scene":0,
	"scenes":[
		{
			"name":"Scene",
			"nodes":[
				0
			]
		}
	],
	"nodes":[
		{
			"mesh":0,
			"name":"Object_14",
			"rotation":[
				0,
				0.9871266484260559,
				0,
				0.15994061529636383
			],
			"scale":[
				0.014850000850856304,
				0.016132013872265816,
				0.014850003644824028
			],
			"translation":[
				-0.12210651487112045,
				0.03988490253686905,
				0.018972456455230713
			]
		}
	],
	"materials":[
		{
			"doubleSided":true,
			"name":"WhitePieces",
			"pbrMetallicRoughness":{
				"baseColorTexture":{
					"index":0
				},
				"metallicFactor":0,
				"roughnessFactor":0.4000000059604645
			}
		}
	],
	"meshes":[
		{
			"name":"Object_5",
			"primitives":[
				{
					"attributes":{
						"POSITION":0,
						"NORMAL":1,
						"TEXCOORD_0":2
					},
					"indices":3,
					"material":0
				}
			]
		}
	],
	"textures":[
		{
			"sampler":0,
			"source":0
		}
	],
	"images":[
		{
			"mimeType":"image/jpeg",
			"name":"WhitePieces_baseColor",
			"uri":"WhitePieces_baseColor.jpg"
		}
	],
	"accessors":[
		{
			"bufferView":0,
			"componentType":5126,
			"count":352,
			"max":[
				0.9238795042037964,
				3.846846580505371,
				0.9238795042037964
			],
			"min":[
				-0.9238795638084412,
				0,
				-0.9238795638084412
			],
			"type":"VEC3"
		},
		{
			"bufferView":1,
			"componentType":5126,
			"count":352,
			"type":"VEC3"
		},
		{
			"bufferView":2,
			"componentType":5126,
			"count":352,
			"type":"VEC2"
		},
		{
			"bufferView":3,
			"componentType":5123,
			"count":1524,
			"type":"SCALAR"
		}
	],
	"bufferViews":[
		{
			"buffer":0,
			"byteLength":4224,
			"byteOffset":0,
			"target":34962
		},
		{
			"buffer":0,
			"byteLength":4224,
			"byteOffset":4224,
			"target":34962
		},
		{
			"buffer":0,
			"byteLength":2816,
			"byteOffset":8448,
			"target":34962
		},
		{
			"buffer":0,
			"byteLength":3048,
			"byteOffset":11264,
			"target":34963
		}
	],
	"samplers":[
		{
			"magFilter":9729,
			"minFilter":9987
		}
	],
	"buffers":[
		{
			"byteLength":14312,
			"uri":"WhiteQueen.bin"
		}
	]
}
