{
	"asset":{
		"generator":"Khronos glTF Blender I/O v4.2.57",
		"version":"2.0"
	},
	"scene":0,
	"scenes":[
		{
			"name":"Scene",
			"nodes":[
				0
			]
		}
	],
	"nodes":[
		{
			"mesh":0,
			"name":"Object_16",
			"translation":[
				-0.12289591878652573,
				0.039871588349342346,
				0.12314407527446747
			]
		}
	],
	"materials":[
		{
			"doubleSided":true,
			"name":"WhitePieces",
			"pbrMetallicRoughness":{
				"baseColorTexture":{
					"index":0
				},
				"metallicFactor":0,
				"roughnessFactor":0.4000000059604645
			}
		}
	],
	"meshes":[
		{
			"name":"Object_6",
			"primitives":[
				{
					"attributes":{
						"POSITION":0,
						"NORMAL":1,
						"TEXCOORD_0":2
					},
					"indices":3,
					"material":0
				}
			]
		}
	],
	"textures":[
		{
			"sampler":0,
			"source":0
		}
	],
	"images":[
		{
			"mimeType":"image/jpeg",
			"name":"WhitePieces_baseColor",
			"uri":"WhitePieces_baseColor.jpg"
		}
	],
	"accessors":[
		{
			"bufferView":0,
			"componentType":5126,
			"count":298,
			"max":[
				0.014752679504454136,
				0.04201183095574379,
				0.014752691611647606
			],
			"min":[
				-0.014752693474292755,
				1.3317912817001343e-05,
				-0.014752686955034733
			],
			"type":"VEC3"
		},
		{
			"bufferView":1,
			"componentType":5126,
			"count":298,
			"type":"VEC3"
		},
		{
			"bufferView":2,
			"componentType":5126,
			"count":298,
			"type":"VEC2"
		},
		{
			"bufferView":3,
			"componentType":5123,
			"count":1476,
			"type":"SCALAR"
		}
	],
	"bufferViews":[
		{
			"buffer":0,
			"byteLength":3576,
			"byteOffset":0,
			"target":34962
		},
		{
			"buffer":0,
			"byteLength":3576,
			"byteOffset":3576,
			"target":34962
		},
		{
			"buffer":0,
			"byteLength":2384,
			"byteOffset":7152,
			"target":34962
		},
		{
			"buffer":0,
			"byteLength":2952,
			"byteOffset":9536,
			"target":34963
		}
	],
	"samplers":[
		{
			"magFilter":9729,
			"minFilter":9987
		}
	],
	"buffers":[
		{
			"byteLength":12488,
			"uri":"WhiteRook.bin"
		}
	]
}
