{
	"asset":{
		"generator":"Khronos glTF Blender I/O v4.2.57",
		"version":"2.0"
	},
	"scene":0,
	"scenes":[
		{
			"name":"Scene",
			"nodes":[
				0
			]
		}
	],
	"nodes":[
		{
			"mesh":0,
			"name":"Object_10",
			"rotation":[
				0,
				0.9791119694709778,
				0,
				0.20332181453704834
			],
			"translation":[
				-0.12253247201442719,
				0.03988490253686905,
				0.08701721578836441
			]
		}
	],
	"materials":[
		{
			"doubleSided":true,
			"name":"WhitePieces",
			"pbrMetallicRoughness":{
				"baseColorTexture":{
					"index":0
				},
				"metallicFactor":0,
				"roughnessFactor":0.4000000059604645
			}
		}
	],
	"meshes":[
		{
			"name":"Object_3",
			"primitives":[
				{
					"attributes":{
						"POSITION":0,
						"NORMAL":1,
						"TEXCOORD_0":2
					},
					"indices":3,
					"material":0
				}
			]
		}
	],
	"textures":[
		{
			"sampler":0,
			"source":0
		}
	],
	"images":[
		{
			"mimeType":"image/jpeg",
			"name":"WhitePieces_baseColor",
			"uri":"WhitePieces_baseColor.jpg"
		}
	],
	"accessors":[
		{
			"bufferView":0,
			"componentType":5126,
			"count":524,
			"max":[
				0.013699822127819061,
				0.04719870537519455,
				0.013699822127819061
			],
			"min":[
				-0.013699822127819061,
				0,
				-0.013699823059141636
			],
			"type":"VEC3"
		},
		{
			"bufferView":1,
			"componentType":5126,
			"count":524,
			"type":"VEC3"
		},
		{
			"bufferView":2,
			"componentType":5126,
			"count":524,
			"type":"VEC2"
		},
		{
			"bufferView":3,
			"componentType":5123,
			"count":1794,
			"type":"SCALAR"
		}
	],
	"bufferViews":[
		{
			"buffer":0,
			"byteLength":6288,
			"byteOffset":0,
			"target":34962
		},
		{
			"buffer":0,
			"byteLength":6288,
			"byteOffset":6288,
			"target":34962
		},
		{
			"buffer":0,
			"byteLength":4192,
			"byteOffset":12576,
			"target":34962
		},
		{
			"buffer":0,
			"byteLength":3588,
			"byteOffset":16768,
			"target":34963
		}
	],
	"samplers":[
		{
			"magFilter":9729,
			"minFilter":9987
		}
	],
	"buffers":[
		{
			"byteLength":20356,
			"uri":"WhiteKnight.bin"
		}
	]
}
