{
	"asset":{
		"generator":"Khronos glTF Blender I/O v4.2.57",
		"version":"2.0"
	},
	"scene":0,
	"scenes":[
		{
			"name":"Scene",
			"nodes":[
				0
			]
		}
	],
	"nodes":[
		{
			"mesh":0,
			"name":"Object_24",
			"rotation":[
				0,
				0.4986034035682678,
				0,
				0.8668302297592163
			],
			"scale":[
				0.014850002713501453,
				0.016132013872265816,
				0.014850001782178879
			],
			"translation":[
				-0.12224580347537994,
				0.03988490626215935,
				-0.018188493326306343
			]
		}
	],
	"materials":[
		{
			"doubleSided":true,
			"name":"WhitePieces",
			"pbrMetallicRoughness":{
				"baseColorTexture":{
					"index":0
				},
				"metallicFactor":0,
				"roughnessFactor":0.4000000059604645
			}
		}
	],
	"meshes":[
		{
			"name":"Object_10",
			"primitives":[
				{
					"attributes":{
						"POSITION":0,
						"NORMAL":1,
						"TEXCOORD_0":2
					},
					"indices":3,
					"material":0
				}
			]
		}
	],
	"textures":[
		{
			"sampler":0,
			"source":0
		}
	],
	"images":[
		{
			"mimeType":"image/jpeg",
			"name":"WhitePieces_baseColor",
			"uri":"WhitePieces_baseColor.jpg"
		}
	],
	"accessors":[
		{
			"bufferView":0,
			"componentType":5126,
			"count":360,
			"max":[
				0.9238795042037964,
				4.393751621246338,
				0.9238795042037964
			],
			"min":[
				-0.9238795638084412,
				0,
				-0.9238795638084412
			],
			"type":"VEC3"
		},
		{
			"bufferView":1,
			"componentType":5126,
			"count":360,
			"type":"VEC3"
		},
		{
			"bufferView":2,
			"componentType":5126,
			"count":360,
			"type":"VEC2"
		},
		{
			"bufferView":3,
			"componentType":5123,
			"count":1332,
			"type":"SCALAR"
		}
	],
	"bufferViews":[
		{
			"buffer":0,
			"byteLength":4320,
			"byteOffset":0,
			"target":34962
		},
		{
			"buffer":0,
			"byteLength":4320,
			"byteOffset":4320,
			"target":34962
		},
		{
			"buffer":0,
			"byteLength":2880,
			"byteOffset":8640,
			"target":34962
		},
		{
			"buffer":0,
			"byteLength":2664,
			"byteOffset":11520,
			"target":34963
		}
	],
	"samplers":[
		{
			"magFilter":9729,
			"minFilter":9987
		}
	],
	"buffers":[
		{
			"byteLength":14184,
			"uri":"WhiteKing.bin"
		}
	]
}
