{
	"asset":{
		"generator":"Khronos glTF Blender I/O v4.2.57",
		"version":"2.0"
	},
	"scene":0,
	"scenes":[
		{
			"name":"Scene",
			"nodes":[
				0
			]
		}
	],
	"nodes":[
		{
			"mesh":0,
			"name":"Object_12",
			"rotation":[
				0,
				0.4474743604660034,
				0,
				0.8942967653274536
			],
			"scale":[
				0.014850001782178879,
				0.016132013872265816,
				0.014850000850856304
			],
			"translation":[
				0.12367899715900421,
				0.03988490253686905,
				-0.05387330800294876
			]
		}
	],
	"materials":[
		{
			"doubleSided":true,
			"name":"BlackPieces",
			"pbrMetallicRoughness":{
				"baseColorTexture":{
					"index":0
				},
				"metallicFactor":0,
				"roughnessFactor":0.4000000059604645
			}
		}
	],
	"meshes":[
		{
			"name":"Object_4",
			"primitives":[
				{
					"attributes":{
						"POSITION":0,
						"NORMAL":1,
						"TEXCOORD_0":2
					},
					"indices":3,
					"material":0
				}
			]
		}
	],
	"textures":[
		{
			"sampler":0,
			"source":0
		}
	],
	"images":[
		{
			"mimeType":"image/jpeg",
			"name":"BlackPieces_baseColor",
			"uri":"BlackPieces_baseColor.jpg"
		}
	],
	"accessors":[
		{
			"bufferView":0,
			"componentType":5126,
			"count":535,
			"max":[
				0.9238795042037964,
				3.5683724880218506,
				0.9238795042037964
			],
			"min":[
				-0.9238795638084412,
				0,
				-0.9238795638084412
			],
			"type":"VEC3"
		},
		{
			"bufferView":1,
			"componentType":5126,
			"count":535,
			"type":"VEC3"
		},
		{
			"bufferView":2,
			"componentType":5126,
			"count":535,
			"type":"VEC2"
		},
		{
			"bufferView":3,
			"componentType":5123,
			"count":1668,
			"type":"SCALAR"
		}
	],
	"bufferViews":[
		{
			"buffer":0,
			"byteLength":6420,
			"byteOffset":0,
			"target":34962
		},
		{
			"buffer":0,
			"byteLength":6420,
			"byteOffset":6420,
			"target":34962
		},
		{
			"buffer":0,
			"byteLength":4280,
			"byteOffset":12840,
			"target":34962
		},
		{
			"buffer":0,
			"byteLength":3336,
			"byteOffset":17120,
			"target":34963
		}
	],
	"samplers":[
		{
			"magFilter":9729,
			"minFilter":9987
		}
	],
	"buffers":[
		{
			"byteLength":20456,
			"uri":"BlackBishop.bin"
		}
	]
}
